<svg id="add" xmlns="http://www.w3.org/2000/svg" width="24" height="24" viewBox="0 0 24 24">
  <path id="Path_2849" data-name="Path 2849" d="M9.02,21H2.5A2.5,2.5,0,0,1,0,18.5V2.5A2.5,2.5,0,0,1,2.5,0h12A2.5,2.5,0,0,1,17,2.5V8.56a.5.5,0,0,1-1,0V2.5A1.5,1.5,0,0,0,14.5,1H2.5A1.5,1.5,0,0,0,1,2.5v16A1.5,1.5,0,0,0,2.5,20H9.02a.5.5,0,0,1,0,1Z" transform="translate(0)" fill="#c7c7c7"/>
  <path id="Path_2850" data-name="Path 2850" d="M13.5,9H3.5a.5.5,0,0,1,0-1h10a.5.5,0,0,1,0,1Z" transform="translate(0)" fill="#c7c7c7"/>
  <path id="Path_2851" data-name="Path 2851" d="M9.5,13h-6a.5.5,0,0,1,0-1h6a.5.5,0,0,1,0,1Z" transform="translate(0)" fill="#c7c7c7"/>
  <path id="Path_2852" data-name="Path 2852" d="M8.5,5h-5a.5.5,0,0,1,0-1h5a.5.5,0,0,1,0,1Z" transform="translate(0)" fill="#c7c7c7"/>
  <path id="Path_2853" data-name="Path 2853" d="M17.5,24A6.5,6.5,0,1,1,24,17.5,6.508,6.508,0,0,1,17.5,24Zm0-12A5.5,5.5,0,1,0,23,17.5,5.506,5.506,0,0,0,17.5,12Z" transform="translate(0)" fill="#c7c7c7"/>
  <path id="Path_2854" data-name="Path 2854" d="M17.5,21a.5.5,0,0,1-.5-.5v-6a.5.5,0,0,1,1,0v6A.5.5,0,0,1,17.5,21Z" transform="translate(0)" fill="#c7c7c7"/>
  <path id="Path_2855" data-name="Path 2855" d="M20.5,18h-6a.5.5,0,0,1,0-1h6a.5.5,0,0,1,0,1Z" transform="translate(0)" fill="#c7c7c7"/>
</svg>
