<svg xmlns="http://www.w3.org/2000/svg" width="29.918" height="33.424" viewBox="0 0 29.918 33.424">
  <g id="Group_1700" data-name="Group 1700" transform="translate(-1863 -153.788)">
    <g id="Group_303" data-name="Group 303" transform="translate(1869.283 153.788)">
      <g id="Group_302" data-name="Group 302">
        <path id="Path_2595" data-name="Path 2595" d="M119.469,0a8.678,8.678,0,1,0,8.678,8.678A8.7,8.7,0,0,0,119.469,0Z" transform="translate(-110.791)" fill="#fff"/>
      </g>
    </g>
    <g id="Group_305" data-name="Group 305" transform="translate(1863 171.765)">
      <g id="Group_304" data-name="Group 304">
        <path id="Path_2596" data-name="Path 2596" d="M54.019,254.155a8.091,8.091,0,0,0-.872-1.592,10.787,10.787,0,0,0-7.465-4.7,1.6,1.6,0,0,0-1.1.265,9.25,9.25,0,0,1-10.914,0,1.422,1.422,0,0,0-1.1-.265,10.709,10.709,0,0,0-7.465,4.7,9.329,9.329,0,0,0-.872,1.592.806.806,0,0,0,.038.72,15.119,15.119,0,0,0,1.023,1.516,14.405,14.405,0,0,0,1.743,1.971,22.718,22.718,0,0,0,1.743,1.516,17.281,17.281,0,0,0,20.615,0,16.668,16.668,0,0,0,1.743-1.516,17.5,17.5,0,0,0,1.743-1.971,13.287,13.287,0,0,0,1.023-1.516A.647.647,0,0,0,54.019,254.155Z" transform="translate(-24.165 -247.841)" fill="#fff"/>
      </g>
    </g>
  </g>
</svg>
