<svg id="blueprint" xmlns="http://www.w3.org/2000/svg" width="40.322" height="40.322" viewBox="0 0 40.322 40.322">
  <g id="Page-1_5_">
    <g id="_x30_06---Draw-Blueprint" transform="translate(0 0)">
      <path id="Shape_33_" d="M359.485,202.757l-.276,2.45a.5.5,0,0,0,.144.406.48.48,0,0,0,.412.144l2.455-.279c.049-.006.091-.029.138-.039l-2.836-2.836A1.349,1.349,0,0,0,359.485,202.757Z" transform="translate(-335.449 -189.202)" fill="#5b26c8"/>
      <path id="Rectangle-path_3_" d="M0,0H11.1V4.455H0Z" transform="translate(24.944 12.24) rotate(-45)" fill="#5b26c8"/>
      <path id="Rectangle-path_1_" d="M0,0H1.509V4.453H0Z" transform="translate(33.803 3.369) rotate(-45)" fill="#5b26c8"/>
      <path id="Shape_32_" d="M546.885,3.374a.738.738,0,0,0,.225-.529.755.755,0,0,0-.225-.539L544.806.226A.754.754,0,0,0,544.268,0a.739.739,0,0,0-.526.223l-1.06,1.058,3.148,3.148Z" transform="translate(-506.788 0)" fill="#5b26c8"/>
      <path id="Shape_31_" d="M4.325,30.241h1.44a.72.72,0,0,0,.72-.72V.72A.72.72,0,0,0,5.765,0H4.325A4.324,4.324,0,0,0,0,4.32V32.2a5.749,5.749,0,0,1,4.32-1.954Z" transform="translate(-0.005 0)" fill="#5b26c8"/>
      <path id="Shape_30_" d="M4.534,182.648H39.607a.72.72,0,0,0,.72-.72v-28.8a.72.72,0,0,0-.72-.72H35.431l-6.836,6.84a2.82,2.82,0,0,1-1.656.788c-2.43.273-2.452.292-2.663.292H13.686v7.92H30.966v-3.6a.72.72,0,1,1,1.44,0v10.8a1.44,1.44,0,0,1-1.44,1.44h-14.4a.72.72,0,1,1,0-1.44h5.04v-5.76h-7.92v10.08a.72.72,0,1,1-1.44,0V160.327h-2.16a.72.72,0,0,1,0-1.44H22.4a1.917,1.917,0,0,1-.067-.711l.273-2.453a2.781,2.781,0,0,1,.817-1.681l1.635-1.635H7.925v19.441a2.16,2.16,0,0,1-2.16,2.16H4.325a4.324,4.324,0,0,0-4.32,4.32v.158a4.464,4.464,0,0,0,4.529,4.162Z" transform="translate(-0.005 -142.327)" fill="#5b26c8"/>
      <path id="Rectangle-path_2_" d="M348.363,413.676h7.92v5.76h-7.92Z" transform="translate(-325.322 -386.315)" fill="#5b26c8"/>
    </g>
  </g>
</svg>
