<svg id="calendar" xmlns="http://www.w3.org/2000/svg" width="22.869" height="22.869" viewBox="0 0 22.869 22.869">
  <path id="Path_2770" data-name="Path 2770" d="M22.244,16.286V5.749A1.877,1.877,0,0,0,20.37,3.874h-.75v-.75a1.125,1.125,0,1,0-2.249,0v.75H15.5v-.75a1.125,1.125,0,1,0-2.249,0v.75H11v-.75a1.125,1.125,0,1,0-2.249,0v.75H6.874v-.75a1.125,1.125,0,0,0-2.249,0v.75h-.75A1.877,1.877,0,0,0,2,5.749v15a1.877,1.877,0,0,0,1.874,1.874H16.48a4.5,4.5,0,1,0,5.765-6.334ZM18.121,3.125a.375.375,0,1,1,.75,0V5.374a.375.375,0,0,1-.75,0ZM14,3.125a.375.375,0,0,1,.75,0V5.374a.375.375,0,0,1-.75,0Zm-4.5,0a.375.375,0,1,1,.75,0V5.374a.375.375,0,1,1-.75,0Zm-4.124,0a.375.375,0,1,1,.75,0V5.374a.375.375,0,0,1-.75,0Zm-1.5,1.5h.75v.75a1.125,1.125,0,0,0,2.249,0v-.75H8.748v.75a1.125,1.125,0,0,0,2.249,0v-.75h2.249v.75a1.125,1.125,0,1,0,2.249,0v-.75h1.874v.75a1.125,1.125,0,1,0,2.249,0v-.75h.75a1.126,1.126,0,0,1,1.125,1.125V7.623H2.75V5.749A1.126,1.126,0,0,1,3.874,4.624Zm0,17.245A1.126,1.126,0,0,1,2.75,20.745V8.373H21.495v7.646a4.281,4.281,0,0,0-1.874-.08V14a.375.375,0,0,0-.375-.375H17a.375.375,0,0,0-.375.375v2.249a.375.375,0,0,0,.375.375h.893a4.473,4.473,0,0,0-1.755,5.249Zm15-6h-1.5v-1.5h1.5Zm1.5,8.248a3.749,3.749,0,1,1,3.749-3.749A3.753,3.753,0,0,1,20.37,24.119Z" transform="translate(-2 -2)" fill="#004057"/>
  <path id="Path_2771" data-name="Path 2771" d="M47.048,44.585V43h-.505v1.585a.482.482,0,0,0-.245.51l-.923.738.316.395.922-.738a.5.5,0,0,0,.435-.9Z" transform="translate(-28.356 -25.182)" fill="#004057"/>
  <path id="Path_2772" data-name="Path 2772" d="M9.768,22H8.253A.252.252,0,0,0,8,22.253v1.515a.252.252,0,0,0,.253.253H9.768a.252.252,0,0,0,.253-.253V22.253A.252.252,0,0,0,9.768,22Zm-.253,1.515H8.505v-1.01h1.01Z" transform="translate(-6.485 -14.133)" fill="#004057"/>
  <path id="Path_2773" data-name="Path 2773" d="M20.768,22H19.253a.252.252,0,0,0-.253.253v1.515a.252.252,0,0,0,.253.253h1.515a.252.252,0,0,0,.253-.253V22.253A.252.252,0,0,0,20.768,22Zm-.253,1.515h-1.01v-1.01h1.01Z" transform="translate(-12.313 -14.133)" fill="#004057"/>
  <path id="Path_2774" data-name="Path 2774" d="M31.768,22H30.253a.252.252,0,0,0-.253.253v1.515a.252.252,0,0,0,.253.253h1.515a.252.252,0,0,0,.253-.253V22.253A.252.252,0,0,0,31.768,22Zm-.253,1.515h-1.01v-1.01h1.01Z" transform="translate(-18.986 -14.133)" fill="#004057"/>
  <path id="Path_2775" data-name="Path 2775" d="M41.253,24.02h1.515a.252.252,0,0,0,.253-.253V22.253A.252.252,0,0,0,42.768,22H41.253a.252.252,0,0,0-.253.253v1.515A.252.252,0,0,0,41.253,24.02Zm.253-1.515h1.01v1.01h-1.01Z" transform="translate(-25.659 -14.133)" fill="#004057"/>
  <path id="Path_2776" data-name="Path 2776" d="M9.768,33H8.253A.252.252,0,0,0,8,33.253v1.515a.252.252,0,0,0,.253.253H9.768a.252.252,0,0,0,.253-.253V33.253A.252.252,0,0,0,9.768,33Zm-.253,1.515H8.505v-1.01h1.01Z" transform="translate(-6.485 -20.806)" fill="#004057"/>
  <path id="Path_2777" data-name="Path 2777" d="M20.768,33H19.253a.252.252,0,0,0-.253.253v1.515a.252.252,0,0,0,.253.253h1.515a.252.252,0,0,0,.253-.253V33.253A.252.252,0,0,0,20.768,33Zm-.253,1.515h-1.01v-1.01h1.01Z" transform="translate(-12.313 -20.806)" fill="#004057"/>
  <path id="Path_2778" data-name="Path 2778" d="M31.768,33H30.253a.252.252,0,0,0-.253.253v1.515a.252.252,0,0,0,.253.253h1.515a.252.252,0,0,0,.253-.253V33.253A.252.252,0,0,0,31.768,33Zm-.253,1.515h-1.01v-1.01h1.01Z" transform="translate(-18.986 -20.806)" fill="#004057"/>
  <path id="Path_2779" data-name="Path 2779" d="M9.768,44H8.253A.252.252,0,0,0,8,44.253v1.515a.252.252,0,0,0,.253.253H9.768a.252.252,0,0,0,.253-.253V44.253A.252.252,0,0,0,9.768,44Zm-.253,1.515H8.505v-1.01h1.01Z" transform="translate(-6.485 -27.479)" fill="#004057"/>
  <path id="Path_2780" data-name="Path 2780" d="M20.768,44H19.253a.252.252,0,0,0-.253.253v1.515a.252.252,0,0,0,.253.253h1.515a.252.252,0,0,0,.253-.253V44.253A.252.252,0,0,0,20.768,44Zm-.253,1.515h-1.01v-1.01h1.01Z" transform="translate(-12.313 -27.479)" fill="#004057"/>
  <path id="Path_2781" data-name="Path 2781" d="M31.768,44H30.253a.252.252,0,0,0-.253.253v1.515a.252.252,0,0,0,.253.253h1.515a.252.252,0,0,0,.253-.253V44.253A.252.252,0,0,0,31.768,44Zm-.253,1.515h-1.01v-1.01h1.01Z" transform="translate(-18.986 -27.479)" fill="#004057"/>
</svg>
