<svg id="calendar" xmlns="http://www.w3.org/2000/svg" width="20.756" height="20.756" viewBox="0 0 64.756 64.756">
  <path id="Path_2770" data-name="Path 2770" d="M59.325,42.452V12.616a5.314,5.314,0,0,0-5.308-5.308H51.894V5.185a3.185,3.185,0,1,0-6.369,0V7.308H40.217V5.185a3.185,3.185,0,1,0-6.369,0V7.308H27.478V5.185a3.185,3.185,0,1,0-6.369,0V7.308H15.8V5.185a3.185,3.185,0,0,0-6.369,0V7.308H7.308A5.314,5.314,0,0,0,2,12.616V55.079a5.314,5.314,0,0,0,5.308,5.308H43A12.729,12.729,0,1,0,59.325,42.452ZM47.648,5.185a1.062,1.062,0,1,1,2.123,0v6.369a1.062,1.062,0,1,1-2.123,0Zm-11.677,0a1.062,1.062,0,1,1,2.123,0v6.369a1.062,1.062,0,1,1-2.123,0Zm-12.739,0a1.062,1.062,0,1,1,2.123,0v6.369a1.062,1.062,0,1,1-2.123,0Zm-11.677,0a1.062,1.062,0,1,1,2.123,0v6.369a1.062,1.062,0,1,1-2.123,0ZM7.308,9.431H9.431v2.123a3.185,3.185,0,0,0,6.369,0V9.431h5.308v2.123a3.185,3.185,0,1,0,6.369,0V9.431h6.369v2.123a3.185,3.185,0,0,0,6.369,0V9.431h5.308v2.123a3.185,3.185,0,0,0,6.369,0V9.431h2.123A3.188,3.188,0,0,1,57.2,12.616v5.308H4.123V12.616A3.188,3.188,0,0,1,7.308,9.431Zm0,48.833a3.188,3.188,0,0,1-3.185-3.185V20.047H57.2V41.7a12.123,12.123,0,0,0-5.308-.227v-5.5a1.061,1.061,0,0,0-1.062-1.062H44.463A1.061,1.061,0,0,0,43.4,35.97V42.34A1.061,1.061,0,0,0,44.463,43.4h2.527a12.667,12.667,0,0,0-4.969,14.862ZM49.771,41.278H45.525V37.032h4.246Zm4.246,23.355A10.616,10.616,0,1,1,64.633,54.017,10.628,10.628,0,0,1,54.017,64.633Z" transform="translate(-2 -2)" fill="#fff"/>
  <path id="Path_2771" data-name="Path 2771" d="M50.113,47.489V43h-1.43v4.489a1.366,1.366,0,0,0-.694,1.443l-2.614,2.091.894,1.117,2.611-2.089a1.425,1.425,0,0,0,1.232-2.562Z" transform="translate(2.818 7.453)" fill="#fff"/>
  <path id="Path_2772" data-name="Path 2772" d="M13.006,22H8.715A.715.715,0,0,0,8,22.715v4.291a.715.715,0,0,0,.715.715h4.291a.715.715,0,0,0,.715-.715V22.715A.715.715,0,0,0,13.006,22Zm-.715,4.291H9.43V23.43h2.861Z" transform="translate(-3.709 0.277)" fill="#fff"/>
  <path id="Path_2773" data-name="Path 2773" d="M24.006,22H19.715a.715.715,0,0,0-.715.715v4.291a.715.715,0,0,0,.715.715h4.291a.715.715,0,0,0,.715-.715V22.715A.715.715,0,0,0,24.006,22Zm-.715,4.291H20.43V23.43h2.861Z" transform="translate(-0.064 0.277)" fill="#fff"/>
  <path id="Path_2774" data-name="Path 2774" d="M35.006,22H30.715a.715.715,0,0,0-.715.715v4.291a.715.715,0,0,0,.715.715h4.291a.715.715,0,0,0,.715-.715V22.715A.715.715,0,0,0,35.006,22Zm-.715,4.291H31.43V23.43h2.861Z" transform="translate(1.188 0.277)" fill="#fff"/>
  <path id="Path_2775" data-name="Path 2775" d="M41.715,27.721h4.291a.715.715,0,0,0,.715-.715V22.715A.715.715,0,0,0,46.006,22H41.715a.715.715,0,0,0-.715.715v4.291A.715.715,0,0,0,41.715,27.721Zm.715-4.291h2.861v2.861H42.43Z" transform="translate(2.441 0.277)" fill="#fff"/>
  <path id="Path_2776" data-name="Path 2776" d="M13.006,33H8.715A.715.715,0,0,0,8,33.715v4.291a.715.715,0,0,0,.715.715h4.291a.715.715,0,0,0,.715-.715V33.715A.715.715,0,0,0,13.006,33Zm-.715,4.291H9.43V34.43h2.861Z" transform="translate(-3.709 1.53)" fill="#fff"/>
  <path id="Path_2777" data-name="Path 2777" d="M24.006,33H19.715a.715.715,0,0,0-.715.715v4.291a.715.715,0,0,0,.715.715h4.291a.715.715,0,0,0,.715-.715V33.715A.715.715,0,0,0,24.006,33Zm-.715,4.291H20.43V34.43h2.861Z" transform="translate(-0.064 1.53)" fill="#fff"/>
  <path id="Path_2778" data-name="Path 2778" d="M35.006,33H30.715a.715.715,0,0,0-.715.715v4.291a.715.715,0,0,0,.715.715h4.291a.715.715,0,0,0,.715-.715V33.715A.715.715,0,0,0,35.006,33Zm-.715,4.291H31.43V34.43h2.861Z" transform="translate(1.188 1.53)" fill="#fff"/>
  <path id="Path_2779" data-name="Path 2779" d="M13.006,44H8.715A.715.715,0,0,0,8,44.715v4.291a.715.715,0,0,0,.715.715h4.291a.715.715,0,0,0,.715-.715V44.715A.715.715,0,0,0,13.006,44Zm-.715,4.291H9.43V45.43h2.861Z" transform="translate(-3.709 2.782)" fill="#fff"/>
  <path id="Path_2780" data-name="Path 2780" d="M24.006,44H19.715a.715.715,0,0,0-.715.715v4.291a.715.715,0,0,0,.715.715h4.291a.715.715,0,0,0,.715-.715V44.715A.715.715,0,0,0,24.006,44Zm-.715,4.291H20.43V45.43h2.861Z" transform="translate(-0.064 2.782)" fill="#fff"/>
  <path id="Path_2781" data-name="Path 2781" d="M35.006,44H30.715a.715.715,0,0,0-.715.715v4.291a.715.715,0,0,0,.715.715h4.291a.715.715,0,0,0,.715-.715V44.715A.715.715,0,0,0,35.006,44Zm-.715,4.291H31.43V45.43h2.861Z" transform="translate(1.188 2.782)" fill="#fff"/>
</svg>
