<svg id="employee_1_" data-name="employee (1)" xmlns="http://www.w3.org/2000/svg" width="44.322" height="44.322" viewBox="0 0 44.322 44.322">
  <path id="Path_2921" data-name="Path 2921" d="M48.1,31.264l1,1,.979-.979L48,29.2a.692.692,0,0,0-1.181.49,11.139,11.139,0,0,1-7.171,10.371l.49,1.3a12.54,12.54,0,0,0,7.965-10.1Z" transform="translate(-12.19 -8.916)" fill="#fff"/>
  <path id="Path_2922" data-name="Path 2922" d="M43.145,21.858l1.346-.325a12.48,12.48,0,0,0-15.784-8.985l.407,1.324a11.1,11.1,0,0,1,14.031,7.986Z" transform="translate(-8.826 -3.69)" fill="#fff"/>
  <path id="Path_2923" data-name="Path 2923" d="M44.223,27.315a8.485,8.485,0,0,0-2.51-6.049l-.978.981A7.158,7.158,0,0,1,39.47,33.387l.735,1.174A8.5,8.5,0,0,0,44.223,27.315Z" transform="translate(-12.136 -6.539)" fill="#fff"/>
  <path id="Path_2924" data-name="Path 2924" d="M29.647,18.218l.488,1.3a7.25,7.25,0,0,1,6.312.624l.735-1.174A8.642,8.642,0,0,0,29.647,18.218Z" transform="translate(-9.115 -5.436)" fill="#fff"/>
  <path id="Path_2925" data-name="Path 2925" d="M52.546,17.313H48.713A16.379,16.379,0,0,0,46.4,11.731l2.709-2.708a.692.692,0,0,0,0-.979L45.195,4.126a.713.713,0,0,0-.979,0L41.508,6.835a16.409,16.409,0,0,0-5.583-2.314V.693A.692.692,0,0,0,35.233,0h-5.54A.692.692,0,0,0,29,.693V5.54h1.385V1.385H34.54V5.093a.693.693,0,0,0,.573.682A15.046,15.046,0,0,1,41.2,8.3a.691.691,0,0,0,.887-.077L44.7,5.6l2.938,2.938L45.02,11.156a.691.691,0,0,0-.077.887,15.056,15.056,0,0,1,2.515,6.083.694.694,0,0,0,.683.573h3.712v4.155H48.142a.692.692,0,0,0-.681.572,15.059,15.059,0,0,1-2.517,6.083.692.692,0,0,0,.077.887l2.623,2.622-2.938,2.938-2.622-2.623a.693.693,0,0,0-.887-.078,15.1,15.1,0,0,1-4.758,2.227l.36,1.338a16.474,16.474,0,0,0,4.71-2.1l2.708,2.709a.692.692,0,0,0,.979,0l3.918-3.918a.692.692,0,0,0,0-.979L46.4,29.821a16.387,16.387,0,0,0,2.309-5.583h3.832a.692.692,0,0,0,.693-.693v-5.54a.692.692,0,0,0-.693-.693Z" transform="translate(-8.916)" fill="#fff"/>
  <path id="Path_2926" data-name="Path 2926" d="M30,28h6.925v1.385H30Z" transform="translate(-9.224 -8.609)" fill="#fff"/>
  <path id="Path_2927" data-name="Path 2927" d="M23.474,24.424l-5-2.274L16.4,19.036a3.469,3.469,0,0,0,2.3-3.263V7.463A3.467,3.467,0,0,0,15.236,4H11.081A3.467,3.467,0,0,0,7.618,7.463V9.54a.692.692,0,0,0,.693.693h4.848a2.773,2.773,0,0,0,2.77-2.77H14.543a1.386,1.386,0,0,1-1.385,1.385H9V7.463a2.08,2.08,0,0,1,2.078-2.078h4.155a2.08,2.08,0,0,1,2.078,2.078v8.31a2.08,2.08,0,0,1-2.078,2.078H11.081A2.08,2.08,0,0,1,9,15.773V11.618H7.618v4.155a3.469,3.469,0,0,0,2.3,3.263L7.844,22.15l-5,2.274A4.858,4.858,0,0,0,0,28.836V44.86a.692.692,0,0,0,.693.693h2.77V44.167H1.385V28.836a3.47,3.47,0,0,1,2.03-3.152l3.968-1.8-.722,3.814a.693.693,0,0,0,.68.821.718.718,0,0,0,.19-.026l3.952-1.13L9.7,42a.692.692,0,0,0,.2.573l2.77,2.77a.691.691,0,0,0,.979,0l2.77-2.77a.694.694,0,0,0,.2-.573l-1.8-14.746,3.824.892a.672.672,0,0,0,.157.018.693.693,0,0,0,.683-.807l-.582-3.5,4,1.817a3.472,3.472,0,0,1,2.03,3.153V44.167H22.854v1.385h2.77a.692.692,0,0,0,.693-.693V28.836a4.858,4.858,0,0,0-2.842-4.413ZM11.451,19.236h3.414l2.193,3.289-3.9,2.785-3.9-2.785ZM8.79,23.892l1.772,1.266,1.025.732-3.357.959ZM15.2,41.839,13.158,43.88l-2.042-2.042,1.812-14.892.248-.071.208.048Zm-.393-16,.693-.5,2.006-1.432.443,2.659Z" transform="translate(0 -1.23)" fill="#fff"/>
  <path id="Path_2928" data-name="Path 2928" d="M7,48H8.385V59.081H7Z" transform="translate(-2.152 -14.758)" fill="#fff"/>
  <path id="Path_2929" data-name="Path 2929" d="M29,48h1.385V59.081H29Z" transform="translate(-8.916 -14.758)" fill="#fff"/>
  <path id="Path_2930" data-name="Path 2930" d="M24,44h2.77v1.385H24Z" transform="translate(-7.379 -13.528)" fill="#fff"/>
</svg>
