<svg id="growth" xmlns="http://www.w3.org/2000/svg" width="38.791" height="38" viewBox="0 0 38.791 38">
  <path id="Path_2856" data-name="Path 2856" d="M65.864,114.371a2.258,2.258,0,0,0-2.258-2.258H61.258A2.258,2.258,0,0,0,59,114.371V130.1a2.258,2.258,0,0,0,2.258,2.258h2.347a2.258,2.258,0,0,0,2.258-2.258Z" transform="translate(-49.214 -94.362)" fill="#fff"/>
  <path id="Path_2857" data-name="Path 2857" d="M6.864,145.543a2.43,2.43,0,0,0-2.43-2.43h-2A2.43,2.43,0,0,0,0,145.543v10.069a2.43,2.43,0,0,0,2.43,2.43h2a2.43,2.43,0,0,0,2.43-2.43Z" transform="translate(0 -120.043)" fill="#fff"/>
  <path id="Path_2858" data-name="Path 2858" d="M123.864,79.371a2.258,2.258,0,0,0-2.258-2.258h-2.347A2.258,2.258,0,0,0,117,79.371V101.11a2.258,2.258,0,0,0,2.258,2.258h2.347a2.258,2.258,0,0,0,2.258-2.258Z" transform="translate(-97.593 -65.369)" fill="#fff"/>
  <path id="Path_2859" data-name="Path 2859" d="M171.745,8.608l-4.4-5.492a1.847,1.847,0,0,0-2.966,0l-4.4,5.492a1.3,1.3,0,0,0-.254,1.418,1.61,1.61,0,0,0,1.512.749l1.187,0V38.237a2.18,2.18,0,0,0,2.26,2.133h2.363a2.164,2.164,0,0,0,2.241-2.133V10.76l1.194.016A1.62,1.62,0,0,0,172,10.026,1.3,1.3,0,0,0,171.745,8.608Z" transform="translate(-133.32 -2.37)" fill="#fff"/>
</svg>
