<svg xmlns="http://www.w3.org/2000/svg" width="40.648" height="27.009" viewBox="0 0 40.648 27.009">
  <g id="handshake" transform="translate(0 0)">
    <path id="Path_2860" data-name="Path 2860" d="M107.426,304.514a1.194,1.194,0,0,0,.109-1.684l-.066-.075a1.185,1.185,0,0,0-.819-.4h-.079a1.185,1.185,0,0,0-.786.3l-1.6,1.4-1.457,1.279a1.2,1.2,0,0,0-.108,1.684l.067.077a1.2,1.2,0,0,0,1.685.109l1.12-.983Z" transform="translate(-94.106 -284.893)" fill="#9e26c8"/>
    <path id="Path_2861" data-name="Path 2861" d="M100.3,304.42c-.033,0-.066,0-.1,0a1.469,1.469,0,0,1-1.015-.5l-.067-.077a1.482,1.482,0,0,1,.134-2.086l3.058-2.685a1.485,1.485,0,0,1,1.072-.365,1.469,1.469,0,0,1,1.015.5l.094.109a1.478,1.478,0,0,1-.161,2.054l-3.057,2.685a1.465,1.465,0,0,1-.974.367Zm2.985-5.142a.908.908,0,0,0-.6.229l-3.057,2.685a.91.91,0,0,0-.082,1.281l.067.077a.909.909,0,0,0,1.281.082l3.056-2.685a.908.908,0,0,0,.082-1.28l-.067-.077a.9.9,0,0,0-.622-.306Z" transform="translate(-90.824 -281.534)" fill="#9e26c8"/>
    <path id="Path_2862" data-name="Path 2862" d="M187.549,366.414a1.189,1.189,0,0,0-.787.3l-1.578,1.385a1.194,1.194,0,0,0,1.575,1.8l1.578-1.385a1.194,1.194,0,0,0-.788-2.091Z" transform="translate(-169.939 -343.808)" fill="#9e26c8"/>
    <path id="Path_2863" data-name="Path 2863" d="M182.7,367.39a1.479,1.479,0,0,1-.978-2.592l1.578-1.385a1.524,1.524,0,0,1,2.088.136,1.48,1.48,0,0,1-.136,2.089l-1.578,1.385A1.472,1.472,0,0,1,182.7,367.39Zm1.576-3.771a.906.906,0,0,0-.6.222l-1.578,1.385a.909.909,0,0,0,1.2,1.366l1.578-1.383a.908.908,0,0,0-.6-1.591Z" transform="translate(-166.662 -340.726)" fill="#9e26c8"/>
    <path id="Path_2864" data-name="Path 2864" d="M7.27,93.793,4.062,107.787l2.564,1.441,6.636-10.794Z" transform="translate(-3.736 -93.08)" fill="#9e26c8"/>
    <path id="Path_2865" data-name="Path 2865" d="M2.99,103.886,0,102.206,3.354,87.568,9.9,92.639ZM.652,101.917l2.139,1.2L9.149,92.775,3.712,88.568Z" transform="translate(0 -87.355)" fill="#9e26c8"/>
    <path id="Path_2866" data-name="Path 2866" d="M74.779,284.822a1.2,1.2,0,0,0,.11-1.686l-.021-.023a1.185,1.185,0,0,0-.819-.4H73.97a1.185,1.185,0,0,0-.786.3l-1.916,1.678a1.21,1.21,0,0,0,1.581,1.832l.016-.013.145-.127,1.458-1.28Z" transform="translate(-65.171 -266.826)" fill="#9e26c8"/>
    <path id="Path_2867" data-name="Path 2867" d="M68.846,283.812a1.04,1.04,0,0,1-.111,0,1.519,1.519,0,0,1-1.032-.521,1.48,1.48,0,0,1,.135-2.088l1.913-1.679a1.5,1.5,0,0,1,1.973,2.248l-1.913,1.679A1.454,1.454,0,0,1,68.846,283.812Zm1.88-4.089a.905.905,0,0,0-.6.229l-1.913,1.679a.908.908,0,0,0-.084,1.282h0a.95.95,0,0,0,.644.328.887.887,0,0,0,.658-.22l1.913-1.679a.909.909,0,0,0,.083-1.282.92.92,0,0,0-.644-.331Z" transform="translate(-61.927 -263.554)" fill="#9e26c8"/>
    <path id="Path_2868" data-name="Path 2868" d="M145.139,335.925a1.186,1.186,0,0,0-.294-.866l-.017-.019a1.185,1.185,0,0,0-.818-.4h-.079a1.185,1.185,0,0,0-.786.3l-.187.165-1.936,1.7-.514.449a1.212,1.212,0,0,0,.727,2.108,1.182,1.182,0,0,0,.866-.294l2.636-2.313A1.187,1.187,0,0,0,145.139,335.925Z" transform="translate(-128.857 -314.586)" fill="#9e26c8"/>
    <path id="Path_2869" data-name="Path 2869" d="M137.962,336.3c-.033,0-.065,0-.1,0a1.493,1.493,0,0,1-.9-2.608l2.633-2.316a1.493,1.493,0,0,1,1.072-.365,1.466,1.466,0,0,1,1.014.5,1.479,1.479,0,0,1-.115,2.108l-2.636,2.313A1.469,1.469,0,0,1,137.962,336.3Zm1.828-4.332-2.446,2.147a.91.91,0,0,0-.086,1.283.922.922,0,0,0,.641.326.9.9,0,0,0,.661-.225l2.636-2.313a.908.908,0,0,0,.084-1.281h0a.915.915,0,0,0-.641-.327h-.061a.9.9,0,0,0-.6.229Z" transform="translate(-125.505 -311.242)" fill="#9e26c8"/>
    <path id="Path_2870" data-name="Path 2870" d="M84.794,172.034l-9.3-7.577c-3.561,1.891-6.082.918-7.288.148a1.359,1.359,0,0,1,.114-2.343l3.1-1.646c-.08-.012-.158-.022-.229-.029a59.973,59.973,0,0,1-8.452.728l-5.418,8.811,1.208.92,1.42-1.247a2.375,2.375,0,0,1,3.352.218h0l.021.023a2.355,2.355,0,0,1,.546,1.15,2.329,2.329,0,0,1,1.467-.4,2.359,2.359,0,0,1,1.631.8l.067.077a2.359,2.359,0,0,1,.584,1.72v0a2.391,2.391,0,0,1,.327-.011,2.36,2.36,0,0,1,1.631.8l-.427.409.444-.39a2.36,2.36,0,0,1,.586,1.721c0,.008,0,.015,0,.023a2.352,2.352,0,0,1,2.131,3.657l2.548,1.47a1.18,1.18,0,0,0,1.6-.423,1.158,1.158,0,0,0-.347-1.548L72.047,176.3s-.005-.006-.008-.009l-.273-.189a.591.591,0,0,1,.673-.971l5.722,3.964a1.163,1.163,0,0,0,1.618-.293h0a1.167,1.167,0,0,0-.286-1.61L73.8,173.148s0-.006-.008-.009a.591.591,0,0,1,.686-.963l6.383,4.529a1.238,1.238,0,0,0,1.473-1.988l-6.868-4.949a.591.591,0,1,1,.656-.983l.03.021.47.335h.006l6.366,4.586c.012.009.021.019.032.028l.105.075a.553.553,0,0,1,.057.045l.114.078a1.231,1.231,0,0,0,1.678-.232,1.211,1.211,0,0,0,.212-1.095A1.183,1.183,0,0,0,84.794,172.034Z" transform="translate(-52.72 -154.51)" fill="#9e26c8"/>
    <path id="Path_2871" data-name="Path 2871" d="M71.092,178.2a1.438,1.438,0,0,1-.719-.193l-2.813-1.622.171-.251a2.081,2.081,0,0,0-1.6-3.227,1.417,1.417,0,0,0-.213.006l-.383.024.022-.325a2.087,2.087,0,0,0-.337-1.309l-.214.189-.386-.421.217-.208a2.074,2.074,0,0,0-1.242-.514,1.916,1.916,0,0,0-.25.008l-.307.023L63,170.042v-.012a2.086,2.086,0,0,0-.514-1.49l-.067-.077a2.069,2.069,0,0,0-2.723-.352l-.364.245-.077-.432A2.1,2.1,0,0,0,55.8,166.7l-1.6,1.4-1.6-1.22,5.634-9.165.154,0a59.891,59.891,0,0,0,8.406-.723l.04-.008.041,0c.075.007.159.018.245.031l.857.129-3.865,2.052a1.073,1.073,0,0,0-.093,1.852c1.134.724,3.554,1.667,7-.161l.167-.089,9.445,7.7a1.471,1.471,0,0,1,.487.739,1.494,1.494,0,0,1-.261,1.351,1.519,1.519,0,0,1-2.071.286l-.321-.239-6.824-4.914a.3.3,0,0,0-.424.07h0a.3.3,0,0,0,.07.425h0l6.87,4.953a1.523,1.523,0,0,1-1.805,2.453l-6.385-4.526a.305.305,0,1,0-.354.5l5.7,4.048a1.448,1.448,0,0,1-1.661,2.373h0l-5.72-3.964a.305.305,0,0,0-.364.49l.017.012,4.339,3.009a1.448,1.448,0,0,1-.44,2.592A1.5,1.5,0,0,1,71.092,178.2Zm-2.732-2.014,2.3,1.327a.882.882,0,0,0,.944-1.486l-3.242-2.25a2.643,2.643,0,0,1,.286,1.387A2.574,2.574,0,0,1,68.36,176.186Zm-.6-4.767a.87.87,0,0,1,.5.155l5.72,3.964a.877.877,0,0,0,1.006-1.436l-5.734-4.072a.876.876,0,0,1,1.046-1.406l6.385,4.529a.952.952,0,0,0,1.133-1.529l-6.861-4.944a.876.876,0,1,1,1.019-1.426l.477.338,6.5,4.69a.841.841,0,0,1,.083.069l.081.053a.945.945,0,0,0,1.29-.171.928.928,0,0,0,.163-.839.9.9,0,0,0-.3-.457l-9.154-7.459c-3.61,1.845-6.184.83-7.407.049a1.644,1.644,0,0,1,.137-2.839l1.752-.93c-1.782.242-4.214.422-7.038.514l-5.2,8.462.818.622,1.245-1.092a2.66,2.66,0,0,1,3.754.244h0a2.7,2.7,0,0,1,.536.927,2.576,2.576,0,0,1,1.3-.253,2.644,2.644,0,0,1,1.828.9l.067.077a2.638,2.638,0,0,1,.657,1.613h.057a2.643,2.643,0,0,1,1.645.718l.009-.008.155.177.017.018.18.205-.008.008a2.635,2.635,0,0,1,.5,1.443h.035a2.673,2.673,0,0,1,.743.157.875.875,0,0,1,.857-1.074Z" transform="translate(-48.379 -151.191)" fill="#9e26c8"/>
    <path id="Path_2872" data-name="Path 2872" d="M393.535,91.146l-5.991,4.641,5.542,9.014a.565.565,0,0,1,.1.068.58.58,0,0,1,.162.362l.83,1.35,2.562-1.442Z" transform="translate(-356.421 -90.646)" fill="#9e26c8"/>
    <path id="Path_2873" data-name="Path 2873" d="M389.735,101.24,388.726,99.6l-.006-.066a.3.3,0,0,0-.08-.187l-.11-.065-.034-.057-5.677-9.23,6.55-5.071,3.355,14.638Zm-.457-1.832.655,1.064,2.139-1.2L389.012,85.92l-5.436,4.21,5.371,8.736a.525.525,0,0,1,.1.075.851.851,0,0,1,.235.467Z" transform="translate(-352.077 -84.921)" fill="#9e26c8"/>
    <path id="Path_2874" data-name="Path 2874" d="M213.4,157.768a5.266,5.266,0,0,1-3.651.133l-3.145-1.021a1.714,1.714,0,0,0-1.311.114l-1.066.566c-.011.006-.021.013-.033.018l-4.225,2.244a.179.179,0,0,0-.1.155.162.162,0,0,0,.076.15c1.243.793,3.371,1.371,6.418-.377a.592.592,0,0,1,.667.054l9.6,7.828a2.277,2.277,0,0,1,.36.372l2.375-2.376-5.061-8.231Z" transform="translate(-183.817 -151.027)" fill="#9e26c8"/>
    <path id="Path_2875" data-name="Path 2875" d="M213.724,165.19l-.2-.252a1.963,1.963,0,0,0-.314-.326l-9.606-7.825a.308.308,0,0,0-.343-.028c-3.172,1.822-5.4,1.207-6.714.37a.446.446,0,0,1-.207-.406.463.463,0,0,1,.254-.394l5.322-2.827a2,2,0,0,1,1.532-.135l3.144,1.019a4.981,4.981,0,0,0,3.454-.125l1.133-.464,5.306,8.628Zm-10.314-9.044a.88.88,0,0,1,.555.2l9.6,7.828a2.172,2.172,0,0,1,.193.175l2-2-4.815-7.834-.681.279a5.551,5.551,0,0,1-3.849.139l-3.143-1.02a1.428,1.428,0,0,0-1.09.1l-5.161,2.743c1.2.695,3.163,1.118,5.955-.486A.875.875,0,0,1,203.41,156.146Z" transform="translate(-180.572 -147.785)" fill="#9e26c8"/>
  </g>
</svg>
