<svg xmlns="http://www.w3.org/2000/svg" width="5" height="5" viewBox="0 0 96.714 148.5">
  <g id="locked-padlock-" transform="translate(-151.75)">
    <path id="Path_2954" data-name="Path 2954" d="M288.271,49.3a54.959,54.959,0,0,1,13.156,7.883v-22.8A34.423,34.423,0,0,0,267.044,0h-.529A34.419,34.419,0,0,0,232.15,34.382v22.8A54.96,54.96,0,0,1,245.306,49.3c1.28-.546,2.594-1.041,3.907-1.484V34.382a17.331,17.331,0,0,1,17.319-17.319h.529A17.332,17.332,0,0,1,284.38,34.382V47.828C285.677,48.254,286.991,48.749,288.271,49.3Z" transform="translate(-66.681)" fill="#004057"/>
    <path id="Path_2955" data-name="Path 2955" d="M151.75,351.774a48.439,48.439,0,1,0,13.719-33.751A48.36,48.36,0,0,0,151.75,351.774Zm35.9-9.76a12.457,12.457,0,1,1,19.076,10.869,3.389,3.389,0,0,0-1.518,3.583l3.7,17.558a1.711,1.711,0,0,1-1.672,2.065H192.974a1.7,1.7,0,0,1-1.672-2.065l3.7-17.558a3.43,3.43,0,0,0-1.518-3.6,12.431,12.431,0,0,1-5.648-8.412A12.751,12.751,0,0,1,187.651,342.014Z" transform="translate(0 -251.631)" fill="#004057"/>
  </g>
</svg>
