<svg xmlns="http://www.w3.org/2000/svg" width="43.814" height="40.394" viewBox="0 0 43.814 40.394">
  <path id="Path_2876" data-name="Path 2876" d="M43.164,15.3a.651.651,0,0,0,.651-.651V9.488a2.759,2.759,0,0,0-2.755-2.755H35.833V5.8a3.31,3.31,0,0,0-3.306-3.306H28.152a10.786,10.786,0,0,0-12.489,0H11.287A3.31,3.31,0,0,0,7.981,5.8v.934H2.755A2.758,2.758,0,0,0,0,9.487V33.9a2.757,2.757,0,0,0,2.754,2.754H7.981v.934a3.31,3.31,0,0,0,3.306,3.306h21.24a3.31,3.31,0,0,0,3.307-3.306v-.934h5.226A2.759,2.759,0,0,0,43.815,33.9V17.256a.651.651,0,1,0-1.3,0V33.9a1.456,1.456,0,0,1-1.454,1.454H35.833V29.974h3.611a.651.651,0,0,0,0-1.3H35.833V27.031h3.611a.651.651,0,0,0,0-1.3H35.833V24.19h3.611a.651.651,0,0,0,0-1.3H35.833V8.034h5.226a1.456,1.456,0,0,1,1.454,1.454v5.166a.651.651,0,0,0,.65.651Zm-11.751-4A9.468,9.468,0,0,1,28.9,17.734,8.014,8.014,0,0,0,24.7,14.155a5.267,5.267,0,1,0-5.581,0,8.008,8.008,0,0,0-4.2,3.58,9.5,9.5,0,1,1,16.5-6.428Zm-9.505,2.35A3.966,3.966,0,1,1,25.873,9.69,3.97,3.97,0,0,1,21.907,13.656Zm0,1.3a6.721,6.721,0,0,1,6.015,3.7,9.485,9.485,0,0,1-12.03,0A6.719,6.719,0,0,1,21.908,14.958Zm12.625,22.63a2.007,2.007,0,0,1-2,2H11.287a2.007,2.007,0,0,1-2-2V34.394a.651.651,0,0,0-1.3,0v.959H2.755A1.455,1.455,0,0,1,1.3,33.9V9.487A1.455,1.455,0,0,1,2.755,8.033H7.981V22.889H4.37a.651.651,0,1,0,0,1.3H7.981v1.539H4.37a.651.651,0,1,0,0,1.3H7.981v1.642H4.37a.651.651,0,1,0,0,1.3H7.981v1.817a.651.651,0,1,0,1.3,0V5.8a2.007,2.007,0,0,1,2-2h2.861a10.806,10.806,0,1,0,15.518,0h2.861a2.007,2.007,0,0,1,2.005,2Zm0,0" transform="translate(0 -0.5)" fill="#18af9a"/>
</svg>
