<svg xmlns="http://www.w3.org/2000/svg" width="17.864" height="17.864" viewBox="0 0 17.864 17.864">
  <g id="Phone" transform="translate(0 0)">
    <path id="Path_2792" data-name="Path 2792" d="M6.4,3.258,4.226,5.429a3.716,3.716,0,0,0-.6,4.5C4.576,11.553,5.351,12.754,8.6,16s4.126,3.69,5.725,4.626a3.707,3.707,0,0,0,4.491-.6l2.177-2.17-4.2-4.195-1.708,1.706a7.359,7.359,0,0,1-.867-.479,15.249,15.249,0,0,1-2.492-2.015,18.9,18.9,0,0,1-2.2-2.682A9.708,9.708,0,0,1,8.91,9.166L8.9,9.145l1.691-1.691Zm0,1.951L8.641,7.454l-.986.991a.727.727,0,0,0-.221.56,1.01,1.01,0,0,0,.043.291,3.271,3.271,0,0,0,.195.484,11.34,11.34,0,0,0,.71,1.184,20.719,20.719,0,0,0,2.359,2.887,16.716,16.716,0,0,0,2.735,2.192,8,8,0,0,0,1.077.6,2.044,2.044,0,0,0,.464.157,1.04,1.04,0,0,0,.3.016.733.733,0,0,0,.489-.221l.986-.986,2.251,2.246-1.2,1.2a2.333,2.333,0,0,1-2.821.377c-1.627-.953-2.246-1.206-5.449-4.407s-3.814-4.19-4.751-5.794a2.336,2.336,0,0,1,.377-2.823Z" transform="translate(-3.128 -3.258)" fill="#004057"/>
  </g>
</svg>
