<svg id="user" xmlns="http://www.w3.org/2000/svg" width="20.567" height="20.797" viewBox="0 0 27.567 30.797">
  <g id="Group_1047" data-name="Group 1047" transform="translate(5.79)">
    <g id="Group_1046" data-name="Group 1046" transform="translate(0)">
      <path id="Path_2887" data-name="Path 2887" d="M118.787,0a8,8,0,1,0,8,8A8.017,8.017,0,0,0,118.787,0Z" transform="translate(-110.791)" fill="#004057"/>
    </g>
  </g>
  <g id="Group_1049" data-name="Group 1049" transform="translate(0 16.564)">
    <g id="Group_1048" data-name="Group 1048" transform="translate(0)">
      <path id="Path_2888" data-name="Path 2888" d="M51.673,253.658a7.454,7.454,0,0,0-.8-1.466,9.939,9.939,0,0,0-6.879-4.33,1.472,1.472,0,0,0-1.013.244,8.523,8.523,0,0,1-10.056,0,1.31,1.31,0,0,0-1.013-.244,9.867,9.867,0,0,0-6.879,4.33,8.6,8.6,0,0,0-.8,1.466.743.743,0,0,0,.035.663,13.931,13.931,0,0,0,.943,1.4,13.269,13.269,0,0,0,1.606,1.816,20.93,20.93,0,0,0,1.606,1.4,15.923,15.923,0,0,0,18.995,0,15.354,15.354,0,0,0,1.606-1.4,16.122,16.122,0,0,0,1.606-1.816,12.242,12.242,0,0,0,.943-1.4A.6.6,0,0,0,51.673,253.658Z" transform="translate(-24.165 -247.841)" fill="#004057"/>
    </g>
  </g>
</svg>
