<svg xmlns="http://www.w3.org/2000/svg" width="44.905" height="29.286" viewBox="0 0 44.905 29.286">
  <g id="user_3_" data-name="user (3)" transform="translate(0 -85.333)">
    <g id="Group_1205" data-name="Group 1205" transform="translate(15.619 85.333)">
      <g id="Group_1204" data-name="Group 1204" transform="translate(0 0)">
        <path id="Path_2915" data-name="Path 2915" d="M177.5,85.333a6.833,6.833,0,1,0,6.833,6.833A6.841,6.841,0,0,0,177.5,85.333Zm0,11.714a4.881,4.881,0,1,1,4.881-4.881A4.888,4.888,0,0,1,177.5,97.047Z" transform="translate(-170.666 -85.333)" fill="#fff"/>
      </g>
    </g>
    <g id="Group_1207" data-name="Group 1207" transform="translate(31.239 93.143)">
      <g id="Group_1206" data-name="Group 1206" transform="translate(0 0)">
        <path id="Path_2916" data-name="Path 2916" d="M346.215,170.667a4.881,4.881,0,1,0,4.881,4.881A4.888,4.888,0,0,0,346.215,170.667Zm0,7.81a2.929,2.929,0,1,1,2.929-2.929A2.932,2.932,0,0,1,346.215,178.477Z" transform="translate(-341.334 -170.667)" fill="#fff"/>
      </g>
    </g>
    <g id="Group_1209" data-name="Group 1209" transform="translate(4.043 93.143)">
      <g id="Group_1208" data-name="Group 1208" transform="translate(0 0)">
        <path id="Path_2917" data-name="Path 2917" d="M49.063,170.667a4.881,4.881,0,1,0,4.881,4.881A4.886,4.886,0,0,0,49.063,170.667Zm0,7.81a2.929,2.929,0,1,1,2.929-2.929A2.932,2.932,0,0,1,49.063,178.477Z" transform="translate(-44.182 -170.667)" fill="#fff"/>
      </g>
    </g>
    <g id="Group_1211" data-name="Group 1211" transform="translate(9.762 100.952)">
      <g id="Group_1210" data-name="Group 1210">
        <path id="Path_2918" data-name="Path 2918" d="M119.357,256a12.705,12.705,0,0,0-12.691,12.691.976.976,0,0,0,1.952,0,10.738,10.738,0,0,1,21.476,0,.976.976,0,0,0,1.952,0A12.705,12.705,0,0,0,119.357,256Z" transform="translate(-106.666 -256)" fill="#fff"/>
      </g>
    </g>
    <g id="Group_1213" data-name="Group 1213" transform="translate(31.099 104.857)">
      <g id="Group_1212" data-name="Group 1212">
        <path id="Path_2919" data-name="Path 2919" d="M344.833,298.667a8.786,8.786,0,0,0-4.551,1.269.976.976,0,1,0,1.013,1.669,6.835,6.835,0,0,1,10.371,5.847.976.976,0,1,0,1.952,0A8.8,8.8,0,0,0,344.833,298.667Z" transform="translate(-339.813 -298.667)" fill="#fff"/>
      </g>
    </g>
    <g id="Group_1215" data-name="Group 1215" transform="translate(0 104.857)">
      <g id="Group_1214" data-name="Group 1214">
        <path id="Path_2920" data-name="Path 2920" d="M13.335,299.934A8.789,8.789,0,0,0,0,307.453a.976.976,0,0,0,1.952,0A6.836,6.836,0,0,1,12.322,301.6a.976.976,0,0,0,1.013-1.669Z" transform="translate(0 -298.667)" fill="#fff"/>
      </g>
    </g>
  </g>
</svg>
