<svg id="user_1_" data-name="user (1)" xmlns="http://www.w3.org/2000/svg" width="39.943" height="26.05" viewBox="0 0 39.943 26.05">
  <g id="Group_501" data-name="Group 501" transform="translate(13.893 0)">
    <g id="Group_500" data-name="Group 500">
      <circle id="Ellipse_165" data-name="Ellipse 165" cx="6.078" cy="6.078" r="6.078" fill="#ee9c0f"/>
    </g>
  </g>
  <g id="Group_503" data-name="Group 503" transform="translate(27.787 6.947)">
    <g id="Group_502" data-name="Group 502" transform="translate(0 0)">
      <circle id="Ellipse_166" data-name="Ellipse 166" cx="4.342" cy="4.342" r="4.342" fill="#ee9c0f"/>
    </g>
  </g>
  <g id="Group_505" data-name="Group 505" transform="translate(3.597 6.947)">
    <g id="Group_504" data-name="Group 504" transform="translate(0 0)">
      <circle id="Ellipse_167" data-name="Ellipse 167" cx="4.342" cy="4.342" r="4.342" fill="#ee9c0f"/>
    </g>
  </g>
  <g id="Group_507" data-name="Group 507" transform="translate(8.683 13.893)">
    <g id="Group_506" data-name="Group 506" transform="translate(0 0)">
      <path id="Path_2649" data-name="Path 2649" d="M117.954,256a11.3,11.3,0,0,0-11.288,11.288.869.869,0,0,0,.868.868h20.84a.869.869,0,0,0,.868-.868A11.3,11.3,0,0,0,117.954,256Z" transform="translate(-106.666 -256)" fill="#ee9c0f"/>
    </g>
  </g>
  <g id="Group_509" data-name="Group 509" transform="translate(0 17.367)">
    <g id="Group_508" data-name="Group 508">
      <path id="Path_2650" data-name="Path 2650" d="M9.435,298.855a7.79,7.79,0,0,0-1.62-.188A7.824,7.824,0,0,0,0,306.482a.869.869,0,0,0,.868.868H7.106a2.575,2.575,0,0,1-.16-.868A12.943,12.943,0,0,1,9.435,298.855Z" transform="translate(0 -298.667)" fill="#ee9c0f"/>
    </g>
  </g>
  <g id="Group_511" data-name="Group 511" transform="translate(30.508 17.367)">
    <g id="Group_510" data-name="Group 510">
      <path id="Path_2651" data-name="Path 2651" d="M376.383,298.667a7.79,7.79,0,0,0-1.62.188,12.943,12.943,0,0,1,2.489,7.627,2.576,2.576,0,0,1-.16.868h6.238a.869.869,0,0,0,.868-.868A7.824,7.824,0,0,0,376.383,298.667Z" transform="translate(-374.763 -298.667)" fill="#ee9c0f"/>
    </g>
  </g>
</svg>
