<svg id="view" xmlns="http://www.w3.org/2000/svg" width="15.65" height="10.732" viewBox="0 0 15.65 10.732">
  <g id="Group_1265" data-name="Group 1265" transform="translate(5.306 2.683)">
    <g id="Group_1264" data-name="Group 1264" transform="translate(0 0)">
      <path id="Path_2933" data-name="Path 2933" d="M158.935,156.416a2.688,2.688,0,1,0,2.519,2.683A2.607,2.607,0,0,0,158.935,156.416Zm-.191,1.887a.6.6,0,0,0-.573.611h-.834a1.472,1.472,0,0,1,1.407-1.5Z" transform="translate(-156.416 -156.416)" fill="#18af9a"/>
    </g>
  </g>
  <g id="Group_1267" data-name="Group 1267" transform="translate(0 0)">
    <g id="Group_1266" data-name="Group 1266">
      <path id="Path_2934" data-name="Path 2934" d="M15.467,86.987c-.851-1.129-3.891-4.811-7.642-4.811S1.033,85.858.182,86.987a.936.936,0,0,0,0,1.11c.851,1.129,3.891,4.811,7.642,4.811s6.791-3.682,7.642-4.811A.936.936,0,0,0,15.467,86.987ZM7.825,91.428a3.893,3.893,0,0,1,0-7.771,3.893,3.893,0,0,1,0,7.771Z" transform="translate(0 -82.176)" fill="#18af9a"/>
    </g>
  </g>
</svg>
