<svg xmlns="http://www.w3.org/2000/svg" width="31.236" height="41.189" viewBox="0 0 31.236 41.189">
  <g id="XMLID_1487_" transform="translate(-61.857 0.001)">
    <g id="XMLID_1153_" transform="translate(61.857 -0.001)">
      <path id="XMLID_1329_" d="M91.2,22.841,85.045,13.2a2.734,2.734,0,0,0-.254-4.962l1.863-6.514a.8.8,0,0,0-.2-.79,3.182,3.182,0,0,0-4.5,0,1.559,1.559,0,0,1-1.11.46A1.561,1.561,0,0,1,79.732.932l0,0A3.185,3.185,0,0,0,75.241.921l-.023.023A1.572,1.572,0,0,1,73,.94L73,.934a3.182,3.182,0,0,0-4.5,0,.8.8,0,0,0-.2.791l1.867,6.512A2.734,2.734,0,0,0,69.9,13.2l-6.15,9.641A11.931,11.931,0,0,0,73.813,41.189h7.323A11.931,11.931,0,0,0,91.2,22.841ZM71.858,2.072l.006.006a3.185,3.185,0,0,0,4.488.007l.023-.023a1.573,1.573,0,0,1,2.218.006l0,0a3.182,3.182,0,0,0,4.5,0,1.572,1.572,0,0,1,1.865-.266L83.173,8.042H71.782L69.993,1.805a1.572,1.572,0,0,1,1.865.266ZM90.187,34.22a10.187,10.187,0,0,1-9.051,5.36H73.813a10.322,10.322,0,0,1-8.7-15.873l6.5-10.194h2.241a.8.8,0,1,0,0-1.609H71.173a1.126,1.126,0,0,1,0-2.253h12.6a1.126,1.126,0,0,1,0,2.253H81.1a.8.8,0,1,0,0,1.609h2.241l6.5,10.194a10.187,10.187,0,0,1,.349,10.513Z" transform="translate(-61.857 0.001)" fill="#029a16"/>
      <path id="XMLID_1341_" d="M213.816,245.1c-.2-.071-.408-.146-.614-.223V241.23a3.305,3.305,0,0,1,.925.432.8.8,0,0,0,.968-1.285,4.913,4.913,0,0,0-1.893-.8v-.8a.8.8,0,0,0-1.609,0v.795a4.164,4.164,0,0,0-.414.1,3.222,3.222,0,0,0-2.209,2.527,2.841,2.841,0,0,0,.93,2.8,7.744,7.744,0,0,0,1.693.962v4.666a3.216,3.216,0,0,1-1.764-.646.8.8,0,1,0-.881,1.347,4.749,4.749,0,0,0,2.645.91v.832a.8.8,0,1,0,1.609,0v-.916a3.878,3.878,0,0,0,2.956-3.16A3.4,3.4,0,0,0,213.816,245.1Zm-2.923-1.367a1.254,1.254,0,0,1-.342-1.236,1.638,1.638,0,0,1,1.042-1.268v2.946A4.812,4.812,0,0,1,210.893,243.732Zm3.679,4.994a2.307,2.307,0,0,1-1.37,1.743v-3.881l.078.028A1.821,1.821,0,0,1,214.572,248.726Z" transform="translate(-196.779 -218.825)" fill="#029a16"/>
      <path id="XMLID_1343_" d="M246.79,149.578a.8.8,0,1,0-.569-.236A.811.811,0,0,0,246.79,149.578Z" transform="translate(-231.171 -136.064)" fill="#029a16"/>
    </g>
  </g>
</svg>
