<svg id="XMLID_1_" xmlns="http://www.w3.org/2000/svg" width="20" height="20" viewBox="0 0 22.608 22.438">
  <path id="Path_2828" data-name="Path 2828" d="M13.971,9.09l8.3,1.648a1.392,1.392,0,0,1,1.121,1.375v9.608a1.411,1.411,0,0,1-1.413,1.413H13.5a.466.466,0,0,0,.471-.471v-.471h8.007a.472.472,0,0,0,.471-.471V12.114a.473.473,0,0,0-.367-.462l-8.111-1.6Z" transform="translate(-0.783 -0.697)" fill="#fff"/>
  <path id="Path_2829" data-name="Path 2829" d="M19.355,14a.471.471,0,0,1,0,.942H17.471a.471.471,0,1,1,0-.942Z" transform="translate(-0.986 -0.982)" fill="#fff"/>
  <path id="Path_2830" data-name="Path 2830" d="M19.355,17a.471.471,0,0,1,0,.942H17.471a.471.471,0,1,1,0-.942Z" transform="translate(-0.986 -1.156)" fill="#fff"/>
  <path id="Path_2831" data-name="Path 2831" d="M19.355,20a.471.471,0,0,1,0,.942H17.471a.471.471,0,1,1,0-.942Z" transform="translate(-0.986 -1.33)" fill="#fff"/>
  <path id="Path_2832" data-name="Path 2832" d="M13.942,22.659a.471.471,0,0,1-.942,0V9.471a.5.5,0,0,1,.17-.367.5.5,0,0,1,.4-.094l.377.075V22.659Z" transform="translate(-0.754 -0.692)" fill="#fff"/>
  <path id="Path_2833" data-name="Path 2833" d="M12.8,23v.471a.466.466,0,0,0,.471.471H9.5a.466.466,0,0,0,.471-.471V23Z" transform="translate(-0.551 -1.504)" fill="#fff"/>
  <path id="Path_2834" data-name="Path 2834" d="M10.355,5a.471.471,0,1,1,0,.942H8.471a.471.471,0,0,1,0-.942Z" transform="translate(-0.464 -0.46)" fill="#fff"/>
  <path id="Path_2835" data-name="Path 2835" d="M10.826,8.471a.466.466,0,0,1-.471.471H8.471a.471.471,0,0,1,0-.942h1.884A.466.466,0,0,1,10.826,8.471Z" transform="translate(-0.464 -0.634)" fill="#fff"/>
  <path id="Path_2836" data-name="Path 2836" d="M10.355,11a.471.471,0,1,1,0,.942H8.471a.471.471,0,0,1,0-.942Z" transform="translate(-0.464 -0.808)" fill="#fff"/>
  <path id="Path_2837" data-name="Path 2837" d="M10.355,14a.471.471,0,1,1,0,.942H8.471a.471.471,0,0,1,0-.942Z" transform="translate(-0.464 -0.982)" fill="#fff"/>
  <path id="Path_2838" data-name="Path 2838" d="M5.826,14.471a.466.466,0,0,1-.471.471H3.471a.471.471,0,0,1,0-.942H5.355A.466.466,0,0,1,5.826,14.471Z" transform="translate(-0.174 -0.982)" fill="#fff"/>
  <path id="Path_2839" data-name="Path 2839" d="M5.355,5a.471.471,0,1,1,0,.942H3.471a.471.471,0,0,1,0-.942Z" transform="translate(-0.174 -0.46)" fill="#fff"/>
  <path id="Path_2840" data-name="Path 2840" d="M5.355,8a.471.471,0,1,1,0,.942H3.471a.471.471,0,0,1,0-.942Z" transform="translate(-0.174 -0.634)" fill="#fff"/>
  <path id="Path_2841" data-name="Path 2841" d="M5.355,11a.471.471,0,1,1,0,.942H3.471a.471.471,0,0,1,0-.942Z" transform="translate(-0.174 -0.808)" fill="#fff"/>
  <path id="Path_2842" data-name="Path 2842" d="M8.71,18.413a.472.472,0,0,0-.471-.471H5.413a.466.466,0,0,0-.471.471v4.239H4V18.413A1.411,1.411,0,0,1,5.413,17H8.239a1.411,1.411,0,0,1,1.413,1.413v4.239H8.71Z" transform="translate(-0.232 -1.156)" fill="#fff"/>
  <path id="Path_2843" data-name="Path 2843" d="M4.942,23h4.71v.471a.466.466,0,0,1-.471.471H4.471A.466.466,0,0,1,4,23.471V23Z" transform="translate(-0.232 -1.504)" fill="#fff"/>
  <path id="Path_2844" data-name="Path 2844" d="M1.648.2,12,1.772a1.408,1.408,0,0,1,1.187,1.394V8.573L12.811,8.5a.5.5,0,0,0-.4.094.5.5,0,0,0-.17.367V3.166a.476.476,0,0,0-.4-.471L1.5,1.131a.261.261,0,0,0-.085-.009.444.444,0,0,0-.3.113.45.45,0,0,0-.17.358V21.205a.472.472,0,0,0,.471.471H3.768v.471a.466.466,0,0,0,.471.471H1.413A1.411,1.411,0,0,1,0,21.205V1.593A1.387,1.387,0,0,1,.5.519,1.414,1.414,0,0,1,1.648.2Z" transform="translate(0 -0.181)" fill="#fff"/>
</svg>
