<svg id="pin" xmlns="http://www.w3.org/2000/svg" width="16.992" height="23" viewBox="0 0 16.992 23">
  <g id="Group_801" data-name="Group 801" transform="translate(0)">
    <g id="Group_800" data-name="Group 800">
      <path id="Path_2768" data-name="Path 2768" d="M56.576,0a8.506,8.506,0,0,0-8.5,8.5,9.8,9.8,0,0,0,.721,3.271,13.7,13.7,0,0,0,.982,1.837l5.825,8.827a1.108,1.108,0,0,0,1.936,0L63.37,13.6a13.644,13.644,0,0,0,.982-1.837,9.8,9.8,0,0,0,.72-3.271A8.506,8.506,0,0,0,56.576,0Zm6.854,11.379a12.555,12.555,0,0,1-.9,1.674L56.71,21.881c-.115.174-.151.174-.266,0l-5.826-8.827a12.56,12.56,0,0,1-.9-1.675A8.9,8.9,0,0,1,49.08,8.5a7.5,7.5,0,1,1,14.993,0A8.9,8.9,0,0,1,63.431,11.379Z" transform="translate(-48.08 0)" fill="#004057"/>
      <path id="Path_2769" data-name="Path 2769" d="M116.578,64.008a4.5,4.5,0,1,0,4.5,4.5A4.5,4.5,0,0,0,116.578,64.008Zm0,8a3.5,3.5,0,1,1,3.5-3.5A3.5,3.5,0,0,1,116.578,72Z" transform="translate(-108.082 -60.009)" fill="#004057"/>
    </g>
  </g>
</svg>
